<?xml version="1.0" encoding="utf-8"?>
<!-- Svg Vector Icons : http://www.onlinewebfonts.com/icon -->
<!DOCTYPE svg PUBLIC "-//W3C//DTD SVG 1.1//EN" "http://www.w3.org/Graphics/SVG/1.1/DTD/svg11.dtd">
<svg version="1.1" xmlns="http://www.w3.org/2000/svg" xmlns:xlink="http://www.w3.org/1999/xlink" x="0px" y="0px" viewBox="0 0 1000 1000" enable-background="new 0 0 1000 1000" xml:space="preserve">
<metadata> Svg Vector Icons : http://www.onlinewebfonts.com/icon </metadata>
<g><path d="M868.1,364.1c0-5.9-2.4-11.5-6.6-15.5l-80.5-76.1l21.8-108.7c1.1-5.8-0.1-11.7-3.5-16.6c-3.4-4.7-8.7-7.9-14.5-8.7l-109.9-14.2L628.5,23.7c-2.5-5.4-7-9.4-12.6-11.3c-5.6-1.8-11.7-1.3-16.8,1.5L501.8,67l-96.6-54.3c-5.1-2.9-11.3-3.5-16.8-1.7c-5.6,1.8-10.2,5.8-12.7,11.1l-47.5,100.1l-110.1,12.8c-6,0.5-11.1,3.8-14.6,8.5c-3.5,4.7-4.8,10.7-3.8,16.5L220.2,269l-81.5,75.1c-4.3,4-6.8,9.6-6.8,15.5c-0.1,5.9,2.3,11.5,6.6,15.5l80.5,76.1l-21.8,108.7c-1.2,5.8,0.1,11.8,3.6,16.5c3.4,4.8,8.7,7.9,14.5,8.7l109.9,14.2L332,614l-81,306.3c-1.8,7.4,0.4,15.2,5.9,20.4c5.5,5.3,13.4,7.2,20.6,5.1l97.2-28.3l59.9,65.6c3.7,4.1,8.8,6.5,14.1,6.8c2.4,0.2,4.9-0.1,7.4-0.7c7.7-2.3,13.5-8.7,15-16.6l37.5-193.2l51.6,153c2.2,7.3,8.1,12.7,15.5,14.4c2.1,0.5,4.2,0.6,6.3,0.5c5.3-0.4,10.3-2.7,14-6.7l68.8-74.3l85.1,25.4c7.7,2.3,16.1,0,21.6-5.9c5.5-5.9,7.2-14.4,4.3-22L670.2,604.7l1.5-3.3l110.1-12.8c0.2,0,0.5,0,0.7-0.1c0.2,0,0.3,0,0.4-0.1c11.6-1.7,19.6-12.6,17.8-24.1c-0.3-1.7-0.7-3.3-1.3-4.8l-19.6-104.8l81.5-75.1C865.6,375.6,868.1,370,868.1,364.1z M437.1,922.9l-39.9-43.7c-5.5-6-13.9-8.4-21.6-6.1l-74.5,21.7l58.7-220.3l11.7,25.4c2.5,5.3,7,9.4,12.6,11.3c5.6,1.9,11.6,1.3,16.8-1.5l87.2-47.6L437.1,922.9z M721,838.9L664.2,822c-7.7-2.3-16.1,0-21.6,5.9l-52.7,56.9l-62.7-183.1c-0.5-1.8-1.6-3.2-2.6-4.7l4.5-23l65.7,36.9c4.1,2.3,8.9,3.2,13.6,2.5c1.1-0.2,2.2-0.4,3.3-0.7c5.6-1.8,10.2-5.8,12.7-11.1l21.4-45.1L721,838.9z M742.4,431.4c-5.4,5-7.8,12.4-6.5,19.5l18.4,98.1l-99.2,11.6c-6.5,0.5-13.6,5.4-16.7,12l-42.8,90.2l-87-48.9c-4.2-2.4-9-3.2-13.6-2.5c-2.4,0.4-4.8,1.2-7,2.4l-87.6,47.8l-41.7-90.7c-3-6.6-9.3-11.3-16.6-12.2l-99-12.8L263,448c1.4-7.2-0.9-14.6-6.2-19.6l-72.6-68.6l73.4-67.7c5.4-4.9,7.8-12.3,6.5-19.5l-18.4-98.1l99.1-11.6c7.5-0.6,13.6-5.4,16.7-12l42.8-90.2l87,48.9c6.4,3.6,14.2,3.6,20.6,0.1L599.5,62l41.6,90.7c3,6.6,9.3,11.3,16.6,12.2l99,12.8l-19.6,97.9c-1.5,7.2,0.9,14.6,6.2,19.6l72.6,68.6L742.4,431.4z M503.5,193.8c-93,0-168.6,75.6-168.6,168.5c0,92.9,75.6,168.6,168.6,168.6c92.9,0,168.5-75.6,168.5-168.6C672,269.4,596.4,193.8,503.5,193.8z M503.5,488.5c-69.6,0-126.2-56.6-126.2-126.2c0-69.5,56.6-126.1,126.2-126.1c69.6,0,126.1,56.6,126.1,126.1C629.6,431.9,573,488.5,503.5,488.5z"/></g>
</svg>